<?xml version="1.0" encoding="UTF-8"?>
<svg id="Layer_1" data-name="Layer 1" xmlns="http://www.w3.org/2000/svg" viewBox="0 0 1252.46 319.53">
  <defs>
    <style>
      .cls-1 {
        fill: #a7c958;
      }

      .cls-1, .cls-2 {
        stroke: #231f20;
        stroke-miterlimit: 10;
        stroke-width: .25px;
      }

      .cls-2 {
        fill: #cfe88a;
      }
    </style>
  </defs>
  <g id="opson">
    <g id="_o_" data-name="(o)">
      <path id="_" data-name=")" class="cls-1" d="M252.58,318.16c-12.85,2.35-24.43.75-35.13-5.25,27.96-13.31,50.19-34.73,65.24-61.97,40.77-73.85,26.23-169.76-39.85-222.95-10.53-8.48-21.24-14.05-34.69-19.51C220.41.2,234.88-1.37,249.38,1.35c27.35,5.14,51.3,18.72,71.63,37.7,17.36,16.21,30.15,35.5,39.68,57.21,9.67,22.05,13.67,44.52,13.55,68.56-.35,73.01-48.7,139.99-121.65,153.35Z"/>
      <path id="_-2" data-name="(" class="cls-1" d="M154.92,312.56c-10.14,6.38-21.11,7.56-32.32,5.9C30.78,304.83-21.95,199.75,9.03,111.22,28.76,54.82,72.68,13.27,131.57,1.43c13.2-2.65,26.29-1.45,38.77,5.46-21.96,8.69-40.92,20.67-56.8,38.34-59.45,66.15-61.59,169.45-1.35,235.51,12.25,13.43,25.54,23.56,42.73,31.82Z"/>
      <path id="plant" class="cls-2" d="M189.81,317.98c-.92,1.5-5.41,1.46-7.41.37l-.28-41.04c-.05-7.52-6.18-13.75-10.68-19.24-15.51,3.66-30.39-2.05-40.14-14.22-8.11-10.12-11.21-22.86-11.95-36.23,29.1,2.62,56.37,16.8,55.69,46.14l7.72,8.61.27-42.22c-28.76-24.32-18.72-59.54,3.83-88.12,12.3,17.22,22.59,34.97,20.48,56.57-1.4,13.06-7.65,24.32-18.26,31.94l.24,39.4c4.32-2.39,5.67-5.45,8.15-8.62-.26-29.02,28.86-41.75,56.91-43.81-.87,8.12-2.39,14.86-4.83,22.05-6.99,20.57-27.85,32.1-49.36,26.92-3.8,3.96-9.54,8.7-9.64,14.46l-.74,47.03Z"/>
    </g>
  </g>
</svg>