<?xml version="1.0" encoding="UTF-8"?>
<svg id="Layer_1" data-name="Layer 1" xmlns="http://www.w3.org/2000/svg" viewBox="0 0 449.69 383.57">
  <defs>
    <style>
      .cls-1 {
        fill: #a7c958;
      }

      .cls-1, .cls-2 {
        stroke: #231f20;
        stroke-miterlimit: 10;
        stroke-width: .25px;
      }

      .cls-2 {
        fill: #cfe88a;
      }
    </style>
  </defs>
  <g id="opson">
    <g id="_o_" data-name="(o)">
      <path id="_" data-name=")" class="cls-1" d="M303.41,382.2c-15.44,2.83-29.35.91-42.21-6.31,33.59-16,60.3-41.72,78.37-74.45,48.98-88.72,31.51-203.94-47.88-267.84-12.65-10.18-25.52-16.88-41.67-23.43C264.76.21,282.15-1.67,299.56,1.6c32.85,6.17,61.63,22.48,86.06,45.29,20.86,19.47,36.23,42.65,47.66,68.73,11.62,26.49,16.42,53.49,16.28,82.36-.42,87.71-58.5,168.18-146.15,184.23Z"/>
      <path id="_-2" data-name="(" class="cls-1" d="M186.09,375.46c-12.18,7.67-25.36,9.09-38.83,7.09C36.95,366.18-26.39,239.94,10.82,133.59,34.53,65.83,87.29,15.92,158.04,1.69c15.85-3.19,31.59-1.75,46.57,6.56-26.38,10.44-49.16,24.83-68.24,46.06-71.41,79.46-73.99,203.57-1.62,282.93,14.71,16.14,30.68,28.31,51.34,38.22Z"/>
      <path id="plant" class="cls-2" d="M228,381.97c-1.11,1.81-6.5,1.75-8.91.44l-.34-49.3c-.06-9.03-7.42-16.51-12.82-23.11-18.63,4.39-36.51-2.46-48.22-17.08-9.74-12.16-13.47-27.46-14.36-43.53,34.96,3.15,67.73,20.19,66.9,55.43l9.27,10.35.32-50.72c-34.55-29.21-22.49-71.52,4.61-105.86,14.77,20.68,27.14,42.01,24.6,67.96-1.69,15.7-9.19,29.22-21.93,38.37l.29,47.33c5.19-2.87,6.81-6.54,9.79-10.36-.31-34.86,34.68-50.15,68.37-52.63-1.04,9.75-2.88,17.85-5.81,26.48-8.39,24.71-33.46,38.57-59.29,32.34-4.57,4.76-11.47,10.45-11.58,17.38l-.88,56.5Z"/>
    </g>
  </g>
</svg>