<?xml version="1.0" encoding="UTF-8"?>
<svg id="Layer_1" data-name="Layer 1" xmlns="http://www.w3.org/2000/svg" viewBox="0 0 1554.8 319.53">
  <defs>
    <style>
      .cls-1 {
        fill: #a7c958;
      }

      .cls-1, .cls-2 {
        stroke: #231f20;
        stroke-miterlimit: 10;
        stroke-width: .25px;
      }

      .cls-2 {
        fill: #cfe88a;
      }
    </style>
  </defs>
  <g id="opson">
    <path id="n" class="cls-1" d="M1380.08,98.43c-15.26,11.25-24.16,29.56-24.19,48.59l-.25,172.18h-83.32l.59-50.69.52-268.39h83.17l-.3,30.49c47.01-39.68,111.02-39.31,155.11,1.26,26.38,24.27,40.51,56.68,43.11,92.88l.14,194.44h-83.62l1.17-170.86c-.29-17.02-4.79-32.61-16.61-44.73-20-20.48-51.65-22.78-75.52-5.18Z"/>
    <path id="o" class="cls-1" d="M1092.8.13c-88.11,0-159.54,71.43-159.54,159.54s71.43,159.54,159.54,159.54,159.54-71.43,159.54-159.54S1180.91.13,1092.8.13ZM1093.12,233.69c-40.66,0-73.63-32.97-73.63-73.63s32.97-73.63,73.63-73.63,73.63,32.97,73.63,73.63-32.96,73.63-73.63,73.63Z"/>
    <path id="s" class="cls-1" d="M680.52,290.35l-26.25-18.59,43.86-64.77c26,31.45,64.47,40.4,104.21,32.43,11.22-2.45,21.97-1.39,32.34,3.16,15.95,7.31,24.21,22.01,25.61,40.61,8.2-26.76-4.96-54.41-29.44-67.68-26.12-14.16-54.98-10.41-85.74-18.85-38.65-10.6-67.5-30.84-76.42-71.56-7.7-35.13,5.93-72.35,33.89-94.9,15.24-12.3,32.04-19.17,50.76-24.65,55.04-13.65,112.72-1.25,157.79,34.85l-41.46,60.11c-14.91-12.94-31.62-21.73-50.9-25.41-17.09-4.08-34.76-2.95-50.53,4.4-5.82,2.33-9.65,6.3-11.58,12.1-2.24,6.72.68,13.44,7.33,16.09,5.63,2.24,11.19,2.29,17.39,2.34,51.42.38,110.13,16.46,126.7,68.89,9.17,29.01,6.12,60.66-8.76,87.31-13.39,23.98-35.96,40.04-62.75,46.83-52.78,13.37-108.32,4.34-156.04-22.72Z"/>
    <path id="p" class="cls-1" d="M612.98,40.98c-20.83-23-49.02-37.34-79.96-39.89-19.84-1.64-38.2,2.02-54.55,12.75l-14.55,9.55-.22-23.22-68.49-.04.1,108.11-.78,159.83-.29,51.33h68.75l-.05-80.8,22.68,11.82c36.22,13.36,76.14,7.63,107.4-15.11,12.81-9.32,23.8-20.14,32.5-33.34,33.02-50.1,27.64-116.62-12.54-160.99ZM518.59,189.51c-32.8,0-59.39-26.59-59.39-59.39s26.59-59.39,59.39-59.39,59.39,26.59,59.39,59.39-26.59,59.39-59.39,59.39Z"/>
    <g id="_o_" data-name="(o)">
      <path id="_" data-name=")" class="cls-1" d="M252.58,318.16c-12.85,2.35-24.43.75-35.13-5.25,27.96-13.31,50.19-34.73,65.24-61.97,40.77-73.85,26.23-169.76-39.85-222.95-10.53-8.48-21.24-14.05-34.69-19.51C220.41.2,234.88-1.37,249.38,1.35c27.35,5.14,51.3,18.72,71.63,37.7,17.36,16.21,30.15,35.5,39.68,57.21s13.67,44.52,13.55,68.56c-.35,73.01-48.7,139.99-121.65,153.35Z"/>
      <path id="_-2" data-name="(" class="cls-1" d="M154.92,312.56c-10.14,6.38-21.11,7.56-32.32,5.9C30.78,304.83-21.95,199.75,9.03,111.22,28.76,54.82,72.68,13.27,131.57,1.43c13.2-2.65,26.29-1.45,38.77,5.46-21.96,8.69-40.92,20.67-56.8,38.34-59.45,66.15-61.59,169.45-1.35,235.51,12.25,13.43,25.54,23.56,42.73,31.82Z"/>
      <path id="plant" class="cls-2" d="M189.81,317.98c-.92,1.5-5.41,1.46-7.41.37l-.28-41.04c-.05-7.52-6.18-13.75-10.68-19.24-15.51,3.66-30.39-2.05-40.14-14.22-8.11-10.12-11.21-22.86-11.95-36.23,29.1,2.62,56.37,16.8,55.69,46.14l7.72,8.61.27-42.22c-28.76-24.32-18.72-59.54,3.83-88.12,12.3,17.22,22.59,34.97,20.48,56.57-1.4,13.06-7.65,24.32-18.26,31.94l.24,39.4c4.32-2.39,5.67-5.45,8.15-8.62-.26-29.02,28.86-41.75,56.91-43.81-.87,8.12-2.39,14.86-4.83,22.05-6.99,20.57-27.85,32.1-49.36,26.92-3.8,3.96-9.54,8.7-9.64,14.46l-.74,47.03Z"/>
    </g>
  </g>
</svg>